<svg width="184" height="32" fill="none" xmlns="http://www.w3.org/2000/svg"><path d="M15.318 31.574H8.6V5.94H0V.447h23.92V5.94h-8.602v25.634z" fill="url(#paint0_linear_4_5)"/><path d="M40.645 31.574H26.237v-3.747l3.857-1.746V5.941l-3.857-1.747V.447h14.408v3.747L36.79 5.94v20.141l3.856 1.746v3.747z" fill="url(#paint1_linear_4_5)"/><path d="M52.8 15.095h2.21c2.066 0 3.611-.397 4.637-1.192 1.025-.81 1.538-1.98 1.538-3.513 0-1.547-.434-2.69-1.3-3.428-.852-.738-2.196-1.107-4.03-1.107H52.8v9.24zm15.166-4.94c0 3.35-1.069 5.912-3.206 7.687-2.124 1.774-5.15 2.661-9.078 2.661H52.8v11.071h-6.716V.447h10.118c3.842 0 6.76.816 8.753 2.449 2.007 1.618 3.011 4.038 3.011 7.26z" fill="url(#paint2_linear_4_5)"/><path d="M87.4 5.493c-2.527 0-4.484.937-5.87 2.81-1.388 1.86-2.08 4.457-2.08 7.793 0 6.94 2.65 10.411 7.95 10.411 2.225 0 4.919-.547 8.082-1.64v5.536C92.882 31.468 89.98 32 86.772 32c-4.607 0-8.132-1.37-10.573-4.11-2.44-2.753-3.661-6.699-3.661-11.837 0-3.236.6-6.068 1.798-8.495 1.199-2.441 2.918-4.308 5.157-5.6C81.746.654 84.382 0 87.4 0c3.076 0 6.167.731 9.273 2.193l-2.167 5.365a36.217 36.217 0 00-3.575-1.448c-1.199-.411-2.376-.617-3.531-.617z" fill="url(#paint3_linear_4_5)"/><path d="M121.633 31.574l-2.297-7.409h-11.548l-2.296 7.41h-7.237L109.435.318h8.211l11.223 31.255h-7.236zm-3.9-12.945a5822.523 5822.523 0 01-3.596-11.39c-.26-.88-.448-1.576-.564-2.087-.476 1.817-1.841 6.31-4.095 13.477h8.255z" fill="url(#paint4_linear_4_5)"/><path d="M151.575 22.93c0 2.81-1.032 5.025-3.098 6.643-2.051 1.618-4.911 2.427-8.58 2.427-3.38 0-6.369-.625-8.969-1.874v-6.131c2.137.936 3.943 1.596 5.416 1.98 1.488.383 2.846.575 4.073.575 1.474 0 2.6-.277 3.38-.83.795-.554 1.192-1.378 1.192-2.47 0-.61-.173-1.15-.52-1.619-.347-.482-.86-.944-1.538-1.384-.665-.44-2.03-1.142-4.095-2.107-1.936-.895-3.387-1.753-4.355-2.577a9.683 9.683 0 01-2.318-2.874c-.578-1.093-.867-2.37-.867-3.832 0-2.754.946-4.918 2.838-6.494C136.041.788 138.67 0 142.021 0c1.646 0 3.213.192 4.701.575 1.502.383 3.07.922 4.702 1.618l-2.167 5.131c-1.69-.681-3.091-1.157-4.203-1.426a13.588 13.588 0 00-3.25-.405c-1.271 0-2.246.291-2.925.873-.679.582-1.018 1.341-1.018 2.278 0 .582.137 1.093.411 1.533.275.426.708.845 1.3 1.256.607.398 2.03 1.121 4.269 2.172 2.961 1.39 4.99 2.789 6.088 4.194 1.097 1.391 1.646 3.101 1.646 5.131z" fill="url(#paint5_linear_4_5)"/><path d="M183.273 31.574h-6.695V18.14h-12.545v13.434h-6.716V.447h6.716v12.2h12.545V.447h6.695v31.127z" fill="url(#paint6_linear_4_5)"/><defs><linearGradient id="paint0_linear_4_5" x1="176.224" y1="29.785" x2="99.09" y2="-66.649" gradientUnits="userSpaceOnUse"><stop stop-color="#5E2EE7"/><stop offset="1" stop-color="#00BFBF"/></linearGradient><linearGradient id="paint1_linear_4_5" x1="176.224" y1="29.785" x2="99.09" y2="-66.649" gradientUnits="userSpaceOnUse"><stop stop-color="#5E2EE7"/><stop offset="1" stop-color="#00BFBF"/></linearGradient><linearGradient id="paint2_linear_4_5" x1="176.224" y1="29.785" x2="99.09" y2="-66.649" gradientUnits="userSpaceOnUse"><stop stop-color="#5E2EE7"/><stop offset="1" stop-color="#00BFBF"/></linearGradient><linearGradient id="paint3_linear_4_5" x1="176.224" y1="29.785" x2="99.09" y2="-66.649" gradientUnits="userSpaceOnUse"><stop stop-color="#5E2EE7"/><stop offset="1" stop-color="#00BFBF"/></linearGradient><linearGradient id="paint4_linear_4_5" x1="176.224" y1="29.785" x2="99.09" y2="-66.649" gradientUnits="userSpaceOnUse"><stop stop-color="#5E2EE7"/><stop offset="1" stop-color="#00BFBF"/></linearGradient><linearGradient id="paint5_linear_4_5" x1="176.224" y1="29.785" x2="99.09" y2="-66.649" gradientUnits="userSpaceOnUse"><stop stop-color="#5E2EE7"/><stop offset="1" stop-color="#00BFBF"/></linearGradient><linearGradient id="paint6_linear_4_5" x1="176.224" y1="29.785" x2="99.09" y2="-66.649" gradientUnits="userSpaceOnUse"><stop stop-color="#5E2EE7"/><stop offset="1" stop-color="#00BFBF"/></linearGradient></defs></svg>