<svg width="83" height="14" fill="none" xmlns="http://www.w3.org/2000/svg"><path d="M6.937 13.814H3.895V2.599H0V.196h10.832v2.403H6.938v11.215zm11.47 0h-6.525v-1.64l1.747-.763V2.599l-1.747-.764V.195h6.525v1.64l-1.746.764v8.812l1.746.763v1.64zm5.505-7.21h1c.936 0 1.636-.174 2.1-.522.465-.353.697-.866.697-1.536 0-.677-.196-1.177-.588-1.5-.386-.323-.995-.484-1.826-.484h-1.383v4.042zm6.868-2.16c0 1.465-.484 2.585-1.452 3.362-.961.776-2.332 1.164-4.111 1.164h-1.305v4.844H20.87V.196h4.582c1.74 0 3.062.357 3.964 1.07.91.709 1.364 1.767 1.364 3.177zm8.802-2.041c-1.145 0-2.031.41-2.66 1.23-.627.813-.941 1.95-.941 3.409 0 3.037 1.2 4.555 3.6 4.555 1.008 0 2.228-.24 3.66-.717v2.42c-1.177.466-2.492.699-3.944.699-2.086 0-3.683-.6-4.788-1.798-1.106-1.204-1.658-2.93-1.658-5.179 0-1.416.271-2.654.814-3.716.543-1.068 1.321-1.885 2.335-2.45C37.02.286 38.215 0 39.582 0c1.393 0 2.793.32 4.2.96L42.8 3.306a16.746 16.746 0 00-1.619-.634 5.061 5.061 0 00-1.6-.27zm15.503 11.411l-1.04-3.242h-5.23l-1.04 3.242h-3.277L49.56.14h3.718l5.083 13.674h-3.277zM53.319 8.15c-.962-2.937-1.505-4.598-1.63-4.983a15.3 15.3 0 01-.254-.913c-.216.795-.834 2.76-1.855 5.896h3.739zm15.326 1.882c0 1.23-.468 2.198-1.403 2.906-.929.708-2.224 1.062-3.886 1.062-1.53 0-2.884-.273-4.062-.82v-2.682c.968.41 1.786.698 2.453.866a7.694 7.694 0 001.845.251c.667 0 1.177-.12 1.53-.363.36-.242.54-.602.54-1.08 0-.267-.078-.503-.235-.708-.157-.211-.39-.413-.697-.606-.3-.192-.92-.5-1.855-.922-.876-.391-1.533-.767-1.972-1.127a4.275 4.275 0 01-1.05-1.257c-.261-.479-.392-1.037-.392-1.677 0-1.205.428-2.152 1.285-2.841C61.61.344 62.8 0 64.318 0c.746 0 1.455.084 2.13.251.68.168 1.39.404 2.128.708l-.98 2.245c-.766-.298-1.4-.506-1.904-.624a6.36 6.36 0 00-1.472-.177c-.576 0-1.017.127-1.325.382a1.232 1.232 0 00-.461.997c0 .254.062.478.186.67.125.187.32.37.59.55.274.174.918.49 1.932.95 1.341.609 2.26 1.22 2.757 1.835.497.609.746 1.357.746 2.245zM83 13.814h-3.032V7.936h-5.681v5.878h-3.042V.196h3.042v5.337h5.681V.196H83v13.618z" fill="#0FD1A3"/></svg>