<svg width="34" height="34" fill="none" xmlns="http://www.w3.org/2000/svg"><path d="M17 33c8.837 0 16-7.163 16-16S25.837 1 17 1 1 8.163 1 17s7.163 16 16 16z" stroke="#0FD1A3" stroke-width="2" stroke-miterlimit="10" stroke-linejoin="round"/><path d="M27.29 25.335c-.144-.382-.308-.729-.522-1.182-.534-.668-1.733-1.162-2.477-1.585-1.25-.712-2.595-1.179-4-1.468-.918-.19-1.28-1.127-.718-1.882.482-.645.901-1.33 1.15-2.101a1.84 1.84 0 01.427-.72c.807-.86 1.142-1.884.97-3.058a.797.797 0 00-.136-.376c-.095-.12-.083-.217-.054-.348.165-.713.205-1.437.187-2.165-.02-.774-.103-1.544-.342-2.285-.21-.653-.502-1.261-1.063-1.698-.522-.407-1.118-.512-1.755-.42-.155.021-.237-.004-.333-.135-.285-.386-.704-.593-1.146-.731-1.43-.448-2.775-.285-3.99.631-.729.553-1.18 1.309-1.5 2.15-.386 1.013-.558 2.06-.465 3.142.044.514.167 1.01.386 1.48.023.05.038.1.062.154-.335.156-.374.468-.366.746.032.93.28 1.803.807 2.582.083.12.22.215.349.29a.437.437 0 01.242.31 6.091 6.091 0 001.109 2.369c.215.278.237.554.156.859a1.61 1.61 0 01-.815 1.026c-.236.126-.53.143-.8.21-1.431.364-2.797.88-4.037 1.698-.724.48-1.267.768-1.693 1.664a22.38 22.38 0 00-.217.83" stroke="#0FD1A3" stroke-width="2" stroke-miterlimit="10" stroke-linecap="round" stroke-linejoin="round"/></svg>