<svg width="184" height="32" viewBox="0 0 184 32" fill="none" xmlns="http://www.w3.org/2000/svg">
<path d="M15.3179 31.5742H8.6014V5.94012H0V0.447106H23.9193V5.94012H15.3179V31.5742Z" fill="url(#paint0_linear_4_5)"/>
<path d="M40.6454 31.5742H26.2375V27.827L30.0941 26.0812V5.94012L26.2375 4.19428V0.447106H40.6454V4.19428L36.7889 5.94012V26.0812L40.6454 27.827V31.5742Z" fill="url(#paint1_linear_4_5)"/>
<path d="M52.8 15.0951H55.01C57.0755 15.0951 58.621 14.6977 59.6465 13.9029C60.672 13.0938 61.1848 11.9228 61.1848 10.3899C61.1848 8.84276 60.7515 7.70016 59.8848 6.96208C59.0326 6.224 57.6893 5.85496 55.855 5.85496H52.8V15.0951ZM67.9662 10.1557C67.9662 13.5054 66.8974 16.0674 64.7597 17.8417C62.6364 19.6159 59.6104 20.503 55.6816 20.503H52.8V31.5742H46.0836V0.447106H56.2016C60.0437 0.447106 62.9614 1.26325 64.9547 2.89554C66.9624 4.51364 67.9662 6.93369 67.9662 10.1557Z" fill="url(#paint2_linear_4_5)"/>
<path d="M87.4007 5.49301C84.873 5.49301 82.9158 6.42981 81.5292 8.30339C80.1425 10.1628 79.4492 12.7603 79.4492 16.0958C79.4492 23.0366 82.0997 26.507 87.4007 26.507C89.625 26.507 92.3188 25.9605 95.4821 24.8676V30.4032C92.8822 31.4677 89.9789 32 86.7723 32C82.1647 32 78.6404 30.6303 76.1993 27.8909C73.7583 25.1373 72.5378 21.1914 72.5378 16.0532C72.5378 12.817 73.1372 9.98536 74.3361 7.55822C75.5349 5.11688 77.2537 3.25039 79.4926 1.95875C81.7458 0.652916 84.3819 0 87.4007 0C90.4772 0 93.5682 0.730982 96.6737 2.19295L94.5071 7.55822C93.3227 7.00466 92.1311 6.52207 90.9322 6.11045C89.7334 5.69882 88.5562 5.49301 87.4007 5.49301Z" fill="url(#paint3_linear_4_5)"/>
<path d="M121.633 31.5742L119.336 24.165H107.788L105.492 31.5742H98.2553L109.435 0.319361H117.646L128.869 31.5742H121.633ZM117.733 18.6294C115.61 11.9157 114.411 8.11887 114.137 7.23886C113.877 6.35884 113.689 5.66334 113.573 5.15236C113.097 6.96917 111.732 11.4615 109.478 18.6294H117.733Z" fill="url(#paint4_linear_4_5)"/>
<path d="M151.575 22.9301C151.575 25.7405 150.543 27.9548 148.477 29.5729C146.426 31.191 143.566 32 139.897 32C136.517 32 133.528 31.3755 130.928 30.1264V23.9947C133.065 24.9315 134.871 25.5915 136.344 25.9747C137.832 26.358 139.19 26.5496 140.417 26.5496C141.891 26.5496 143.017 26.2728 143.797 25.7192C144.592 25.1657 144.989 24.3424 144.989 23.2495C144.989 22.6392 144.816 22.0998 144.469 21.6314C144.122 21.1488 143.609 20.6875 142.931 20.2475C142.266 19.8075 140.901 19.1049 138.836 18.1397C136.9 17.2455 135.449 16.3868 134.481 15.5635C133.513 14.7403 132.74 13.7822 132.163 12.6893C131.585 11.5964 131.296 10.3189 131.296 8.85695C131.296 6.10335 132.242 3.93879 134.134 2.36327C136.041 0.787758 138.67 0 142.021 0C143.667 0 145.234 0.191617 146.722 0.57485C148.224 0.958084 149.792 1.49745 151.424 2.19295L149.257 7.32402C147.567 6.64271 146.166 6.16722 145.054 5.89754C143.956 5.62786 142.873 5.49301 141.804 5.49301C140.533 5.49301 139.558 5.78399 138.879 6.36593C138.2 6.94788 137.861 7.70725 137.861 8.64405C137.861 9.22599 137.998 9.73697 138.272 10.177C138.547 10.6028 138.98 11.0215 139.572 11.4331C140.179 11.8306 141.602 12.5544 143.841 13.6048C146.802 14.9958 148.831 16.3939 149.929 17.7991C151.026 19.1901 151.575 20.9004 151.575 22.9301Z" fill="url(#paint5_linear_4_5)"/>
<path d="M183.273 31.5742H176.578V18.1397H164.033V31.5742H157.317V0.447106H164.033V12.6467H176.578V0.447106H183.273V31.5742Z" fill="url(#paint6_linear_4_5)"/>
<defs>
<linearGradient id="paint0_linear_4_5" x1="176.224" y1="29.7846" x2="99.0897" y2="-66.6486" gradientUnits="userSpaceOnUse">
<stop stop-color="#5E2EE7"/>
<stop offset="1" stop-color="#00BFBF"/>
</linearGradient>
<linearGradient id="paint1_linear_4_5" x1="176.224" y1="29.7846" x2="99.0897" y2="-66.6486" gradientUnits="userSpaceOnUse">
<stop stop-color="#5E2EE7"/>
<stop offset="1" stop-color="#00BFBF"/>
</linearGradient>
<linearGradient id="paint2_linear_4_5" x1="176.224" y1="29.7846" x2="99.0897" y2="-66.6486" gradientUnits="userSpaceOnUse">
<stop stop-color="#5E2EE7"/>
<stop offset="1" stop-color="#00BFBF"/>
</linearGradient>
<linearGradient id="paint3_linear_4_5" x1="176.224" y1="29.7846" x2="99.0897" y2="-66.6486" gradientUnits="userSpaceOnUse">
<stop stop-color="#5E2EE7"/>
<stop offset="1" stop-color="#00BFBF"/>
</linearGradient>
<linearGradient id="paint4_linear_4_5" x1="176.224" y1="29.7846" x2="99.0897" y2="-66.6486" gradientUnits="userSpaceOnUse">
<stop stop-color="#5E2EE7"/>
<stop offset="1" stop-color="#00BFBF"/>
</linearGradient>
<linearGradient id="paint5_linear_4_5" x1="176.224" y1="29.7846" x2="99.0897" y2="-66.6486" gradientUnits="userSpaceOnUse">
<stop stop-color="#5E2EE7"/>
<stop offset="1" stop-color="#00BFBF"/>
</linearGradient>
<linearGradient id="paint6_linear_4_5" x1="176.224" y1="29.7846" x2="99.0897" y2="-66.6486" gradientUnits="userSpaceOnUse">
<stop stop-color="#5E2EE7"/>
<stop offset="1" stop-color="#00BFBF"/>
</linearGradient>
</defs>
</svg>
