<svg width="83" height="14" viewBox="0 0 83 14" fill="none" xmlns="http://www.w3.org/2000/svg">
<path d="M6.93711 13.8137H3.89538V2.5988H0V0.195609H10.8325V2.5988H6.93711V13.8137Z" fill="#0FD1A3"/>
<path d="M18.4074 13.8137H11.8824V12.1743L13.6289 11.4105V2.5988L11.8824 1.835V0.195609H18.4074V1.835L16.6608 2.5988V11.4105L18.4074 12.1743V13.8137Z" fill="#0FD1A3"/>
<path d="M23.9119 6.60413H24.9128C25.8482 6.60413 26.5481 6.43025 27.0125 6.0825C27.477 5.72854 27.7092 5.21623 27.7092 4.54558C27.7092 3.86871 27.5129 3.36882 27.1205 3.04591C26.7345 2.723 26.1262 2.56154 25.2954 2.56154H23.9119V6.60413ZM30.7804 4.44311C30.7804 5.90863 30.2963 7.0295 29.3282 7.80572C28.3666 8.58195 26.9962 8.97006 25.2169 8.97006H23.9119V13.8137H20.8702V0.195609H25.4524C27.1924 0.195609 28.5138 0.552673 29.4165 1.2668C30.3257 1.97472 30.7804 3.03349 30.7804 4.44311Z" fill="#0FD1A3"/>
<path d="M39.5817 2.40319C38.437 2.40319 37.5507 2.81304 36.9227 3.63273C36.2947 4.44622 35.9807 5.58261 35.9807 7.04192C35.9807 10.0785 37.1811 11.5968 39.5817 11.5968C40.5891 11.5968 41.8091 11.3577 43.2416 10.8796V13.3014C42.0642 13.7671 40.7494 14 39.2972 14C37.2105 14 35.6144 13.4008 34.5089 12.2023C33.4034 10.9976 32.8507 9.27124 32.8507 7.02329C32.8507 5.60745 33.1222 4.3686 33.6651 3.30672C34.208 2.23863 34.9864 1.42204 36.0004 0.856953C37.0208 0.285651 38.2146 0 39.5817 0C40.9751 0 42.3749 0.319805 43.7813 0.959415L42.8001 3.30672C42.2637 3.06454 41.724 2.8534 41.1811 2.67332C40.6382 2.49324 40.1051 2.40319 39.5817 2.40319Z" fill="#0FD1A3"/>
<path d="M55.0848 13.8137L54.0447 10.5722H48.8149L47.7748 13.8137H44.4976L49.5606 0.139721H53.2793L58.362 13.8137H55.0848ZM53.3186 8.15037C52.357 5.21313 51.8141 3.55201 51.6898 3.167C51.5721 2.78199 51.487 2.47771 51.4347 2.25416C51.2188 3.04901 50.6007 5.01442 49.5802 8.15037H53.3186Z" fill="#0FD1A3"/>
<path d="M68.645 10.0319C68.645 11.2615 68.1773 12.2302 67.2419 12.9381C66.313 13.646 65.0178 14 63.3563 14C61.8256 14 60.4716 13.7268 59.2941 13.1803V10.4977C60.2622 10.9075 61.0799 11.1963 61.7471 11.3639C62.4209 11.5316 63.0358 11.6154 63.5918 11.6154C64.259 11.6154 64.7692 11.4943 65.1225 11.2522C65.4822 11.01 65.6621 10.6498 65.6621 10.1717C65.6621 9.90464 65.5836 9.66866 65.4266 9.46374C65.2697 9.25261 65.0374 9.05079 64.73 8.85828C64.4291 8.66578 63.8109 8.35839 62.8755 7.93613C61.999 7.54491 61.3416 7.16922 60.9033 6.80905C60.465 6.44888 60.1151 6.02972 59.8534 5.55156C59.5918 5.07341 59.4609 4.51453 59.4609 3.87492C59.4609 2.67022 59.8894 1.72322 60.7463 1.03393C61.6098 0.344644 62.8003 0 64.3179 0C65.0636 0 65.7733 0.0838323 66.4471 0.251497C67.1274 0.419162 67.8371 0.655134 68.5763 0.959415L67.5951 3.20426C66.8298 2.90619 66.1953 2.69816 65.6916 2.58017C65.1944 2.46219 64.7038 2.40319 64.2198 2.40319C63.6441 2.40319 63.2026 2.53049 62.8951 2.7851C62.5877 3.0397 62.434 3.37192 62.434 3.78177C62.434 4.03637 62.4961 4.25992 62.6204 4.45243C62.7447 4.63872 62.9409 4.82191 63.2091 5.002C63.4839 5.17587 64.1282 5.49257 65.1421 5.9521C66.4831 6.56066 67.4021 7.17232 67.8993 7.78709C68.3964 8.39565 68.645 9.14394 68.645 10.0319Z" fill="#0FD1A3"/>
<path d="M83 13.8137H79.9681V7.93613H74.2869V13.8137H71.2452V0.195609H74.2869V5.53293H79.9681V0.195609H83V13.8137Z" fill="#0FD1A3"/>
</svg>
