<svg width="34" height="34" viewBox="0 0 34 34" fill="none" xmlns="http://www.w3.org/2000/svg">
<path d="M17 33C25.8366 33 33 25.8366 33 17C33 8.16344 25.8366 1 17 1C8.16344 1 1 8.16344 1 17C1 25.8366 8.16344 33 17 33Z" stroke="#0FD1A3" stroke-width="2" stroke-miterlimit="10" stroke-linejoin="round"/>
<path d="M27.2905 25.3355C27.1457 24.9532 26.9823 24.6063 26.7684 24.1532C26.2345 23.4846 25.0354 22.9911 24.291 22.5684C23.0413 21.856 21.6956 21.3894 20.291 21.0997C19.3731 20.9094 19.011 19.973 19.5735 19.2185C20.0552 18.5734 20.4745 17.888 20.7221 17.1166C20.8131 16.8336 20.9495 16.613 21.1499 16.3974C21.9566 15.5368 22.2918 14.5128 22.12 13.3389C22.1015 13.2075 22.0627 13.0627 21.9836 12.9633C21.8893 12.8437 21.9011 12.7461 21.9297 12.6147C22.0947 11.9023 22.1352 11.1781 22.1166 10.4505C22.0964 9.67574 22.0139 8.90606 21.7747 8.16501C21.5642 7.51153 21.2729 6.90353 20.712 6.46732C20.1899 6.05974 19.5937 5.95532 18.9571 6.04627C18.8021 6.06816 18.7196 6.0429 18.6236 5.91153C18.339 5.52585 17.9196 5.31869 17.4783 5.18058C16.0484 4.73258 14.7027 4.89595 13.4884 5.81216C12.7592 6.36458 12.3078 7.12079 11.9878 7.96122C11.6021 8.97511 11.4303 10.0227 11.523 11.104C11.5667 11.6176 11.6897 12.1145 11.9086 12.5844C11.9322 12.6332 11.9474 12.6837 11.971 12.7376C11.6358 12.8943 11.5971 13.2058 11.6055 13.4837C11.6375 14.4134 11.8851 15.2875 12.4122 16.0656C12.4947 16.1869 12.6312 16.2812 12.7609 16.3553C12.8922 16.4294 12.9646 16.5069 13.0034 16.6652C13.2072 17.5309 13.5659 18.3326 14.1116 19.0349C14.3272 19.3128 14.3491 19.589 14.2682 19.8938C14.147 20.352 13.8573 20.7023 13.4531 20.9195C13.2173 21.0458 12.9225 21.0627 12.6531 21.1301C11.2215 21.4938 9.85559 22.0092 8.61601 22.8277C7.8918 23.3077 7.34949 23.5957 6.92338 24.4917C6.91496 24.5086 6.76675 25.061 6.70612 25.3221" stroke="#0FD1A3" stroke-width="2" stroke-miterlimit="10" stroke-linecap="round" stroke-linejoin="round"/>
</svg>
